<mxfile host="app.diagrams.net" modified="2022-11-01T02:16:52.889Z" agent="5.0 (Windows NT 10.0; Win64; x64) AppleWebKit/537.36 (KHTML, like Gecko) Chrome/107.0.0.0 Safari/537.36" etag="rvPqBRRxENm8oq4-85Uf" version="20.4.2" type="github">
  <diagram id="C5RBs43oDa-KdzZeNtuy" name="Page-1">
    <mxGraphModel dx="918" dy="885" grid="1" gridSize="10" guides="1" tooltips="1" connect="1" arrows="1" fold="1" page="1" pageScale="1" pageWidth="827" pageHeight="1169" math="0" shadow="0">
      <root>
        <mxCell id="WIyWlLk6GJQsqaUBKTNV-0" />
        <mxCell id="WIyWlLk6GJQsqaUBKTNV-1" parent="WIyWlLk6GJQsqaUBKTNV-0" />
        <mxCell id="KqpH2fUWG_idAKff5mKj-13" value="" style="edgeStyle=orthogonalEdgeStyle;rounded=0;orthogonalLoop=1;jettySize=auto;html=1;fontSize=9;" edge="1" parent="WIyWlLk6GJQsqaUBKTNV-1" source="KqpH2fUWG_idAKff5mKj-0" target="KqpH2fUWG_idAKff5mKj-1">
          <mxGeometry relative="1" as="geometry" />
        </mxCell>
        <mxCell id="KqpH2fUWG_idAKff5mKj-0" value="START" style="strokeWidth=2;html=1;shape=mxgraph.flowchart.start_2;whiteSpace=wrap;" vertex="1" parent="WIyWlLk6GJQsqaUBKTNV-1">
          <mxGeometry x="353" y="160" width="100" height="100" as="geometry" />
        </mxCell>
        <mxCell id="KqpH2fUWG_idAKff5mKj-14" value="" style="edgeStyle=orthogonalEdgeStyle;rounded=0;orthogonalLoop=1;jettySize=auto;html=1;fontSize=9;" edge="1" parent="WIyWlLk6GJQsqaUBKTNV-1" source="KqpH2fUWG_idAKff5mKj-1" target="KqpH2fUWG_idAKff5mKj-2">
          <mxGeometry relative="1" as="geometry" />
        </mxCell>
        <mxCell id="KqpH2fUWG_idAKff5mKj-1" value="num = 0;" style="verticalLabelPosition=middle;verticalAlign=middle;html=1;shape=hexagon;perimeter=hexagonPerimeter2;arcSize=6;size=0.27;labelPosition=center;align=center;" vertex="1" parent="WIyWlLk6GJQsqaUBKTNV-1">
          <mxGeometry x="353" y="300" width="100" height="60" as="geometry" />
        </mxCell>
        <mxCell id="KqpH2fUWG_idAKff5mKj-15" value="" style="edgeStyle=orthogonalEdgeStyle;rounded=0;orthogonalLoop=1;jettySize=auto;html=1;fontSize=9;" edge="1" parent="WIyWlLk6GJQsqaUBKTNV-1" source="KqpH2fUWG_idAKff5mKj-2" target="KqpH2fUWG_idAKff5mKj-3">
          <mxGeometry relative="1" as="geometry" />
        </mxCell>
        <mxCell id="KqpH2fUWG_idAKff5mKj-2" value="INPUT num" style="shape=parallelogram;html=1;strokeWidth=2;perimeter=parallelogramPerimeter;whiteSpace=wrap;rounded=1;arcSize=12;size=0.23;" vertex="1" parent="WIyWlLk6GJQsqaUBKTNV-1">
          <mxGeometry x="353" y="410" width="100" height="60" as="geometry" />
        </mxCell>
        <mxCell id="KqpH2fUWG_idAKff5mKj-4" style="edgeStyle=orthogonalEdgeStyle;rounded=0;orthogonalLoop=1;jettySize=auto;html=1;labelPosition=left;verticalLabelPosition=top;align=right;verticalAlign=bottom;" edge="1" parent="WIyWlLk6GJQsqaUBKTNV-1" source="KqpH2fUWG_idAKff5mKj-3" target="KqpH2fUWG_idAKff5mKj-7">
          <mxGeometry relative="1" as="geometry">
            <mxPoint x="183" y="590" as="targetPoint" />
          </mxGeometry>
        </mxCell>
        <mxCell id="KqpH2fUWG_idAKff5mKj-6" value="Yes" style="edgeLabel;html=1;align=center;verticalAlign=bottom;resizable=0;points=[];" vertex="1" connectable="0" parent="KqpH2fUWG_idAKff5mKj-4">
          <mxGeometry x="-0.2235" y="-1" relative="1" as="geometry">
            <mxPoint x="1" as="offset" />
          </mxGeometry>
        </mxCell>
        <mxCell id="KqpH2fUWG_idAKff5mKj-5" value="No" style="edgeStyle=orthogonalEdgeStyle;rounded=0;orthogonalLoop=1;jettySize=auto;html=1;verticalAlign=bottom;" edge="1" parent="WIyWlLk6GJQsqaUBKTNV-1" source="KqpH2fUWG_idAKff5mKj-3">
          <mxGeometry relative="1" as="geometry">
            <mxPoint x="584.4999999999998" y="590" as="targetPoint" />
          </mxGeometry>
        </mxCell>
        <mxCell id="KqpH2fUWG_idAKff5mKj-3" value="is num even?" style="strokeWidth=2;html=1;shape=mxgraph.flowchart.decision;whiteSpace=wrap;" vertex="1" parent="WIyWlLk6GJQsqaUBKTNV-1">
          <mxGeometry x="318" y="510" width="170" height="160" as="geometry" />
        </mxCell>
        <mxCell id="KqpH2fUWG_idAKff5mKj-11" style="edgeStyle=orthogonalEdgeStyle;rounded=0;orthogonalLoop=1;jettySize=auto;html=1;entryX=0.002;entryY=0.597;entryDx=0;entryDy=0;entryPerimeter=0;fontSize=9;" edge="1" parent="WIyWlLk6GJQsqaUBKTNV-1" source="KqpH2fUWG_idAKff5mKj-7" target="KqpH2fUWG_idAKff5mKj-10">
          <mxGeometry relative="1" as="geometry">
            <Array as="points">
              <mxPoint x="193" y="870" />
            </Array>
          </mxGeometry>
        </mxCell>
        <mxCell id="KqpH2fUWG_idAKff5mKj-7" value="OUTPUT &quot;Even&quot;" style="shape=parallelogram;html=1;strokeWidth=2;perimeter=parallelogramPerimeter;whiteSpace=wrap;rounded=1;arcSize=12;size=0.23;fontSize=9;" vertex="1" parent="WIyWlLk6GJQsqaUBKTNV-1">
          <mxGeometry x="153" y="560" width="100" height="60" as="geometry" />
        </mxCell>
        <mxCell id="KqpH2fUWG_idAKff5mKj-12" style="edgeStyle=orthogonalEdgeStyle;rounded=0;orthogonalLoop=1;jettySize=auto;html=1;fontSize=9;entryX=1;entryY=0.5;entryDx=0;entryDy=0;entryPerimeter=0;" edge="1" parent="WIyWlLk6GJQsqaUBKTNV-1" source="KqpH2fUWG_idAKff5mKj-9" target="KqpH2fUWG_idAKff5mKj-10">
          <mxGeometry relative="1" as="geometry">
            <mxPoint x="623" y="880" as="targetPoint" />
            <Array as="points">
              <mxPoint x="613" y="860" />
            </Array>
          </mxGeometry>
        </mxCell>
        <mxCell id="KqpH2fUWG_idAKff5mKj-9" value="OUTPUT &quot;Odd&quot;" style="shape=parallelogram;html=1;strokeWidth=2;perimeter=parallelogramPerimeter;whiteSpace=wrap;rounded=1;arcSize=12;size=0.23;fontSize=9;" vertex="1" parent="WIyWlLk6GJQsqaUBKTNV-1">
          <mxGeometry x="573" y="560" width="100" height="60" as="geometry" />
        </mxCell>
        <mxCell id="KqpH2fUWG_idAKff5mKj-10" value="END" style="strokeWidth=2;html=1;shape=mxgraph.flowchart.start_2;whiteSpace=wrap;" vertex="1" parent="WIyWlLk6GJQsqaUBKTNV-1">
          <mxGeometry x="363" y="810" width="100" height="100" as="geometry" />
        </mxCell>
        <mxCell id="KqpH2fUWG_idAKff5mKj-16" value="Make a Flowchart : Even or Odd?" style="text;html=1;resizable=0;autosize=1;align=center;verticalAlign=middle;points=[];fillColor=none;strokeColor=none;rounded=0;fontSize=25;" vertex="1" parent="WIyWlLk6GJQsqaUBKTNV-1">
          <mxGeometry x="203" y="100" width="400" height="40" as="geometry" />
        </mxCell>
      </root>
    </mxGraphModel>
  </diagram>
</mxfile>
